<svg width="26" height="26" viewBox="0 0 26 26" fill="none" xmlns="http://www.w3.org/2000/svg">
<path d="M0.506908 15.0375C0.282691 13.6884 0.282691 12.3115 0.506908 10.9625C1.88441 10.995 3.12191 10.335 3.60316 9.1737C4.08441 8.0112 3.67566 6.6687 2.67816 5.71995C3.47367 4.60656 4.44761 3.6322 5.56066 2.8362C6.51066 3.8337 7.85316 4.24245 9.01566 3.7612C10.1782 3.27995 10.8369 2.0412 10.8032 0.664953C12.1531 0.440459 13.5308 0.440459 14.8807 0.664953C14.8469 2.04245 15.5069 3.27995 16.6682 3.7612C17.8307 4.24245 19.1732 3.8337 20.1219 2.8362C21.2353 3.63172 22.2097 4.60566 23.0057 5.7187C22.0082 6.6687 21.5994 8.0112 22.0807 9.1737C22.5619 10.3362 23.8007 10.995 25.1769 10.9612C25.4014 12.3111 25.4014 13.6888 25.1769 15.0387C23.7994 15.005 22.5619 15.665 22.0807 16.8262C21.5994 17.9887 22.0082 19.3312 23.0057 20.2799C22.2101 21.3933 21.2362 22.3677 20.1232 23.1637C19.1732 22.1662 17.8307 21.7575 16.6682 22.2387C15.5057 22.72 14.8469 23.9587 14.8807 25.335C13.5308 25.5594 12.1531 25.5594 10.8032 25.335C10.8369 23.9575 10.1769 22.72 9.01566 22.2387C7.85316 21.7575 6.51066 22.1662 5.56191 23.1637C4.44852 22.3682 3.47416 21.3942 2.67816 20.2812C3.67566 19.3312 4.08441 17.9887 3.60316 16.8262C3.12191 15.6637 1.88316 15.005 0.506908 15.0387V15.0375ZM12.8419 16.75C13.8365 16.75 14.7903 16.3549 15.4936 15.6516C16.1968 14.9483 16.5919 13.9945 16.5919 13C16.5919 12.0054 16.1968 11.0516 15.4936 10.3483C14.7903 9.64504 13.8365 9.24995 12.8419 9.24995C11.8473 9.24995 10.8935 9.64504 10.1903 10.3483C9.487 11.0516 9.09191 12.0054 9.09191 13C9.09191 13.9945 9.487 14.9483 10.1903 15.6516C10.8935 16.3549 11.8473 16.75 12.8419 16.75Z" fill="url(#paint0_linear_1048_346)"/>
<defs>
<linearGradient id="paint0_linear_1048_346" x1="3.09625" y1="7.29805" x2="22.1176" y2="18.011" gradientUnits="userSpaceOnUse">
<stop stop-color="#F05225"/>
<stop offset="1" stop-color="#EEA820"/>
</linearGradient>
</defs>
</svg>
