<svg width="28" height="26" viewBox="0 0 28 26" fill="none" xmlns="http://www.w3.org/2000/svg">
<path d="M4.50636 14.7733C3.7762 14.7733 3.07413 14.7903 2.37324 14.7658C2.04036 14.7543 1.69966 14.6989 1.38122 14.6016C0.909404 14.458 0.746278 14.0849 0.895355 13.6051C1.01711 13.2134 1.24814 12.8859 1.52912 12.601C5.30599 8.76649 9.08636 4.9347 12.8675 1.10409C13.6586 0.302607 15.0127 0.295882 15.8061 1.09856C19.5428 4.88129 23.2775 8.66601 27.0067 12.4563C27.3728 12.8285 27.7053 13.2384 27.8224 13.7756C27.8938 14.1043 27.7681 14.3741 27.4731 14.5351C27.1125 14.7314 26.7168 14.7642 26.3207 14.7705C25.6834 14.7808 25.0461 14.7733 24.4088 14.7733H24.1817V25.4968H16.7014C16.7014 25.4185 16.7014 25.3422 16.7014 25.2654C16.7014 23.6106 16.7029 21.9558 16.7002 20.3014C16.6994 19.8481 16.61 19.4149 16.3938 19.0114C16.1097 18.4813 15.6699 18.1612 15.1002 18.0184C14.5675 17.8847 14.0301 17.8823 13.5044 18.0417C12.6189 18.3104 12.0367 19.0636 12.0035 20.013C11.9746 20.8422 11.9832 21.6734 11.9801 22.5033C11.977 23.4263 11.9793 24.3492 11.9793 25.2721C11.9793 25.3434 11.9793 25.4146 11.9793 25.5H4.50636V14.7733Z" fill="url(#paint0_linear_894_1160)"/>
<defs>
<linearGradient id="paint0_linear_894_1160" x1="3.81925" y1="7.29946" x2="23.5657" y2="19.3105" gradientUnits="userSpaceOnUse">
<stop stop-color="#F05225"/>
<stop offset="1" stop-color="#EEA820"/>
</linearGradient>
</defs>
</svg>
