<svg width="20" height="28" viewBox="0 0 20 28" fill="none" xmlns="http://www.w3.org/2000/svg">
<path d="M17.7969 12.725C19.7494 14.6762 19.7494 17.8425 17.7969 19.795L10.7256 26.8662C10.2381 27.3537 9.44561 27.3537 8.95811 26.8662L1.88686 19.795C-0.0656397 17.8425 -0.0656397 14.6763 1.88686 12.7238C3.83936 10.7712 7.00561 10.7712 8.95811 12.7238L9.84061 13.6075L10.7256 12.7238C12.6781 10.7712 15.8444 10.7712 17.7969 12.7238V12.725ZM9.84186 0.25C12.6044 0.25 14.8419 2.4875 14.8419 5.25C14.8419 8.0125 12.6044 10.25 9.84186 10.25C7.07936 10.25 4.84186 8.0125 4.84186 5.25C4.84186 2.4875 7.07936 0.25 9.84186 0.25Z" fill="url(#paint0_linear_1048_436)"/>
<defs>
<linearGradient id="paint0_linear_1048_436" x1="2.49986" y1="7.58868" x2="18.8472" y2="14.017" gradientUnits="userSpaceOnUse">
<stop stop-color="#F05225"/>
<stop offset="1" stop-color="#EEA820"/>
</linearGradient>
</defs>
</svg>
