<svg width="20" height="20" viewBox="0 0 20 20" fill="none" xmlns="http://www.w3.org/2000/svg">
<path fill-rule="evenodd" clip-rule="evenodd" d="M17.2221 8.25391H2.36877C2.02377 8.25391 1.74377 7.97391 1.74377 7.62891C1.74377 7.28391 2.02377 7.00391 2.36877 7.00391H17.2221C17.5671 7.00391 17.8471 7.28391 17.8471 7.62891C17.8471 7.97391 17.5671 8.25391 17.2221 8.25391" fill="#101010" fill-opacity="0.5"/>
<path fill-rule="evenodd" clip-rule="evenodd" d="M13.501 11.5083C13.156 11.5083 12.8727 11.2283 12.8727 10.8833C12.8727 10.5383 13.1485 10.2583 13.4935 10.2583H13.501C13.846 10.2583 14.126 10.5383 14.126 10.8833C14.126 11.2283 13.846 11.5083 13.501 11.5083" fill="#101010" fill-opacity="0.5"/>
<path fill-rule="evenodd" clip-rule="evenodd" d="M9.80308 11.5083C9.45808 11.5083 9.17474 11.2283 9.17474 10.8833C9.17474 10.5383 9.45058 10.2583 9.79558 10.2583H9.80308C10.1481 10.2583 10.4281 10.5383 10.4281 10.8833C10.4281 11.2283 10.1481 11.5083 9.80308 11.5083" fill="#101010" fill-opacity="0.5"/>
<path fill-rule="evenodd" clip-rule="evenodd" d="M6.09743 11.5083C5.75243 11.5083 5.46826 11.2283 5.46826 10.8833C5.46826 10.5383 5.74493 10.2583 6.08993 10.2583H6.09743C6.44243 10.2583 6.72243 10.5383 6.72243 10.8833C6.72243 11.2283 6.44243 11.5083 6.09743 11.5083" fill="#101010" fill-opacity="0.5"/>
<path fill-rule="evenodd" clip-rule="evenodd" d="M13.501 14.7471C13.156 14.7471 12.8727 14.4671 12.8727 14.1221C12.8727 13.7771 13.1485 13.4971 13.4935 13.4971H13.501C13.846 13.4971 14.126 13.7771 14.126 14.1221C14.126 14.4671 13.846 14.7471 13.501 14.7471" fill="#101010" fill-opacity="0.5"/>
<path fill-rule="evenodd" clip-rule="evenodd" d="M9.80308 14.7471C9.45808 14.7471 9.17474 14.4671 9.17474 14.1221C9.17474 13.7771 9.45058 13.4971 9.79558 13.4971H9.80308C10.1481 13.4971 10.4281 13.7771 10.4281 14.1221C10.4281 14.4671 10.1481 14.7471 9.80308 14.7471" fill="#101010" fill-opacity="0.5"/>
<path fill-rule="evenodd" clip-rule="evenodd" d="M6.09743 14.7471C5.75243 14.7471 5.46826 14.4671 5.46826 14.1221C5.46826 13.7771 5.74493 13.4971 6.08993 13.4971H6.09743C6.44243 13.4971 6.72243 13.7771 6.72243 14.1221C6.72243 14.4671 6.44243 14.7471 6.09743 14.7471" fill="#101010" fill-opacity="0.5"/>
<path fill-rule="evenodd" clip-rule="evenodd" d="M13.1613 4.826C12.8163 4.826 12.5363 4.546 12.5363 4.201V1.4585C12.5363 1.1135 12.8163 0.833496 13.1613 0.833496C13.5063 0.833496 13.7863 1.1135 13.7863 1.4585V4.201C13.7863 4.546 13.5063 4.826 13.1613 4.826" fill="#101010" fill-opacity="0.5"/>
<path fill-rule="evenodd" clip-rule="evenodd" d="M6.42944 4.826C6.08444 4.826 5.80444 4.546 5.80444 4.201V1.4585C5.80444 1.1135 6.08444 0.833496 6.42944 0.833496C6.77444 0.833496 7.05444 1.1135 7.05444 1.4585V4.201C7.05444 4.546 6.77444 4.826 6.42944 4.826" fill="#101010" fill-opacity="0.5"/>
<mask id="mask0_836_1339" style="mask-type:luminance" maskUnits="userSpaceOnUse" x="1" y="2" width="17" height="17">
<path fill-rule="evenodd" clip-rule="evenodd" d="M1.66669 2.14941H17.9167V18.7502H1.66669V2.14941Z" fill="white"/>
</mask>
<g mask="url(#mask0_836_1339)">
<path fill-rule="evenodd" clip-rule="evenodd" d="M6.26752 3.39941C4.10669 3.39941 2.91669 4.55191 2.91669 6.64441V14.1852C2.91669 16.3236 4.10669 17.5002 6.26752 17.5002H13.3159C15.4767 17.5002 16.6667 16.3452 16.6667 14.2486V6.64441C16.67 5.61525 16.3934 4.81525 15.8442 4.26525C15.2792 3.69858 14.4084 3.39941 13.3234 3.39941H6.26752ZM13.3159 18.7502H6.26752C3.43002 18.7502 1.66669 17.0011 1.66669 14.1852V6.64441C1.66669 3.87108 3.43002 2.14941 6.26752 2.14941H13.3234C14.7475 2.14941 15.925 2.57608 16.7292 3.38191C17.51 4.16608 17.9209 5.29358 17.9167 6.64608V14.2486C17.9167 17.0252 16.1534 18.7502 13.3159 18.7502V18.7502Z" fill="#101010" fill-opacity="0.5"/>
</g>
</svg>
