<svg width="22" height="20" viewBox="0 0 22 20" fill="none" xmlns="http://www.w3.org/2000/svg">
<path fill-rule="evenodd" clip-rule="evenodd" d="M18.6349 8.25293H3.29612C2.93985 8.25293 2.6507 7.97293 2.6507 7.62793C2.6507 7.28293 2.93985 7.00293 3.29612 7.00293H18.6349C18.9911 7.00293 19.2803 7.28293 19.2803 7.62793C19.2803 7.97293 18.9911 8.25293 18.6349 8.25293" fill="#F3F3F3"/>
<path fill-rule="evenodd" clip-rule="evenodd" d="M14.7922 11.5078C14.4359 11.5078 14.1433 11.2278 14.1433 10.8828C14.1433 10.5378 14.4282 10.2578 14.7844 10.2578H14.7922C15.1485 10.2578 15.4376 10.5378 15.4376 10.8828C15.4376 11.2278 15.1485 11.5078 14.7922 11.5078" fill="#F3F3F3"/>
<path fill-rule="evenodd" clip-rule="evenodd" d="M10.9735 11.5078C10.6172 11.5078 10.3246 11.2278 10.3246 10.8828C10.3246 10.5378 10.6094 10.2578 10.9657 10.2578H10.9735C11.3297 10.2578 11.6189 10.5378 11.6189 10.8828C11.6189 11.2278 11.3297 11.5078 10.9735 11.5078" fill="#F3F3F3"/>
<path fill-rule="evenodd" clip-rule="evenodd" d="M7.14668 11.5078C6.7904 11.5078 6.49695 11.2278 6.49695 10.8828C6.49695 10.5378 6.78266 10.2578 7.13893 10.2578H7.14668C7.50295 10.2578 7.7921 10.5378 7.7921 10.8828C7.7921 11.2278 7.50295 11.5078 7.14668 11.5078" fill="#F3F3F3"/>
<path fill-rule="evenodd" clip-rule="evenodd" d="M14.7922 14.7471C14.4359 14.7471 14.1433 14.4671 14.1433 14.1221C14.1433 13.7771 14.4282 13.4971 14.7844 13.4971H14.7922C15.1485 13.4971 15.4376 13.7771 15.4376 14.1221C15.4376 14.4671 15.1485 14.7471 14.7922 14.7471" fill="#F3F3F3"/>
<path fill-rule="evenodd" clip-rule="evenodd" d="M10.9735 14.7471C10.6172 14.7471 10.3246 14.4671 10.3246 14.1221C10.3246 13.7771 10.6094 13.4971 10.9657 13.4971H10.9735C11.3297 13.4971 11.6189 13.7771 11.6189 14.1221C11.6189 14.4671 11.3297 14.7471 10.9735 14.7471" fill="#F3F3F3"/>
<path fill-rule="evenodd" clip-rule="evenodd" d="M7.14668 14.7471C6.7904 14.7471 6.49695 14.4671 6.49695 14.1221C6.49695 13.7771 6.78266 13.4971 7.13893 13.4971H7.14668C7.50295 13.4971 7.7921 13.7771 7.7921 14.1221C7.7921 14.4671 7.50295 14.7471 7.14668 14.7471" fill="#F3F3F3"/>
<path fill-rule="evenodd" clip-rule="evenodd" d="M14.4413 4.82551C14.085 4.82551 13.7959 4.54551 13.7959 4.20051V1.45801C13.7959 1.11301 14.085 0.833008 14.4413 0.833008C14.7976 0.833008 15.0867 1.11301 15.0867 1.45801V4.20051C15.0867 4.54551 14.7976 4.82551 14.4413 4.82551" fill="#F3F3F3"/>
<path fill-rule="evenodd" clip-rule="evenodd" d="M7.48948 4.82551C7.13321 4.82551 6.84406 4.54551 6.84406 4.20051V1.45801C6.84406 1.11301 7.13321 0.833008 7.48948 0.833008C7.84576 0.833008 8.13491 1.11301 8.13491 1.45801V4.20051C8.13491 4.54551 7.84576 4.82551 7.48948 4.82551" fill="#F3F3F3"/>
<mask id="mask0_1087_523" style="mask-type:luminance" maskUnits="userSpaceOnUse" x="2" y="2" width="18" height="17">
<path fill-rule="evenodd" clip-rule="evenodd" d="M2.57111 2.14844H19.3522V18.7492H2.57111V2.14844Z" fill="white"/>
</mask>
<g mask="url(#mask0_1087_523)">
<path fill-rule="evenodd" clip-rule="evenodd" d="M7.3223 3.39844C5.09085 3.39844 3.86196 4.55094 3.86196 6.64344V14.1843C3.86196 16.3226 5.09085 17.4993 7.3223 17.4993H14.601C16.8324 17.4993 18.0613 16.3443 18.0613 14.2476V6.64344C18.0648 5.61427 17.779 4.81427 17.2119 4.26427C16.6285 3.6976 15.7292 3.39844 14.6087 3.39844H7.3223ZM14.601 18.7493H7.3223C4.39207 18.7493 2.57111 17.0001 2.57111 14.1843V6.64344C2.57111 3.8701 4.39207 2.14844 7.3223 2.14844H14.6087C16.0794 2.14844 17.2954 2.5751 18.1259 3.38094C18.9322 4.1651 19.3565 5.2926 19.3522 6.6451V14.2476C19.3522 17.0243 17.5312 18.7493 14.601 18.7493V18.7493Z" fill="#F3F3F3"/>
</g>
</svg>
