<svg width="29" height="39" viewBox="0 0 29 39" fill="none" xmlns="http://www.w3.org/2000/svg">
<path d="M14.3853 38.182C12.8666 36.1356 11.3765 34.1844 9.94919 32.1923C7.28919 28.4838 4.77986 24.6846 2.73562 20.6245C1.7924 18.7504 0.895455 16.8434 0.576302 14.7709C0.0744377 11.5181 0.966641 8.54767 2.86969 5.85385C6.06359 1.33012 11.9353 -0.877316 17.4499 0.324475C23.1495 1.56708 27.3982 5.9128 28.3022 11.356C28.7092 13.8015 28.1516 16.0815 27.2024 18.3162C25.6802 21.9 23.6965 25.2537 21.4743 28.4691C19.309 31.6028 17.0144 34.6549 14.7733 37.7421C14.6855 37.8623 14.5751 37.9666 14.3841 38.1809L14.3853 38.182ZM14.4636 6.93773C10.7358 6.91052 7.69613 9.77894 7.67122 13.3458C7.6463 16.9126 10.6421 19.8377 14.3544 19.8729C18.1048 19.908 21.1883 17.0192 21.2085 13.4512C21.2287 9.85037 18.2412 6.96494 14.4648 6.93659L14.4636 6.93773Z" fill="#6AD051"/>
</svg>
