<svg width="32" height="49" viewBox="0 0 32 49" fill="none" xmlns="http://www.w3.org/2000/svg">
<path d="M5.456 15.725C5.42071 20.0126 5.97686 23.8745 8.86256 26.7873C8.92075 26.7798 8.97799 26.7723 9.03618 26.7648C9.05716 26.5524 9.10963 26.3369 9.09151 26.1299C9.06193 25.7931 8.98085 25.4628 8.9322 25.1282C8.35315 21.1827 8.24821 17.2264 9.03427 13.3141C9.86611 9.17449 11.9648 5.86599 14.7837 3.12589C15.7739 2.16283 16.8815 1.35206 17.9346 0.472656L18.0443 0.595988C18.0224 0.707522 18.0119 0.824419 17.9785 0.931663C16.8471 4.46967 17.5244 7.60014 19.6622 10.4035C20.9453 12.0862 22.5031 13.4182 24.0685 14.733C26.0155 16.3674 27.8118 18.1616 29.1807 20.4491C30.791 23.141 31.6953 26.073 31.7125 29.3451C31.7249 31.7624 31.7812 34.1936 31.0944 36.5133C29.7541 41.0422 27.1469 44.4258 23.4122 46.6619C16.0048 51.0986 6.98709 48.0453 2.77254 39.7231C1.47994 37.1718 0.807409 34.4413 0.735863 31.5007C0.664316 28.5686 0.790238 25.6687 1.6879 22.8857C2.42817 20.5907 3.41169 18.4329 4.814 16.5433C4.99239 16.303 5.18222 16.0735 5.45696 15.725H5.456ZM18.1264 29.7129C18.071 29.7043 18.0157 29.6947 17.9604 29.6861C17.907 29.7698 17.8364 29.8459 17.802 29.9392C17.5483 30.632 17.3508 31.357 17.0436 32.0187C15.3093 35.7551 12.5811 38.0222 8.91693 38.8845C8.71565 38.9317 8.52486 39.0303 8.29305 39.1194C11.5384 42.8826 16.2347 44.5931 21.2467 42.164C25.8553 39.9312 28.7152 33.9502 27.8233 28.5257C27.0353 23.7351 23.5381 19.3381 20.0428 18.5766C20.4349 19.4625 20.8375 20.269 21.1551 21.1162C21.5482 22.1629 22.0128 23.2128 22.2007 24.3142C22.8866 28.3327 21.8678 31.876 19.5764 34.9894C18.9 35.9074 18.1206 36.7096 17.1133 37.4206C17.8011 34.8178 18.5079 32.3415 18.1264 29.714V29.7129Z" fill="url(#paint0_linear_851_1437)"/>
<defs>
<linearGradient id="paint0_linear_851_1437" x1="4.13735" y1="13.5884" x2="31.5975" y2="23.5307" gradientUnits="userSpaceOnUse">
<stop stop-color="#F05225"/>
<stop offset="1" stop-color="#EEA820"/>
</linearGradient>
</defs>
</svg>
