<svg width="27" height="26" viewBox="0 0 27 26" fill="none" xmlns="http://www.w3.org/2000/svg">
<g clip-path="url(#clip0_913_413)">
<path d="M0.84192 24.2873V7.49939C1.21452 6.53454 1.59227 6.27686 2.63219 6.27686C9.65508 6.27686 16.6776 6.27686 23.7005 6.27686C24.7544 6.27686 25.335 6.85481 25.3372 7.90838C25.3394 9.08674 25.3379 10.2647 25.3372 11.4431C25.3372 11.5322 25.3291 11.6213 25.3239 11.7266C25.2049 11.7266 25.113 11.7266 25.0212 11.7266C22.2715 11.7266 19.5214 11.7236 16.7717 11.728C15.304 11.7302 14.2237 12.7798 14.2009 14.2383C14.184 15.3316 14.1785 16.4257 14.2101 17.5182C14.22 17.8628 14.3119 18.2302 14.4626 18.5402C14.9292 19.5013 15.7406 19.9519 16.7959 19.9537C19.5372 19.9593 22.2788 19.9556 25.0201 19.9556H25.317C25.3265 20.0211 25.3357 20.0535 25.3357 20.0863C25.3364 21.3916 25.3508 22.6974 25.3317 24.0024C25.3184 24.919 24.6985 25.4977 23.7622 25.4981C16.6464 25.5006 9.53051 25.5021 2.41465 25.49C2.12362 25.4896 1.81312 25.3913 1.54634 25.2654C1.14875 25.0777 0.973838 24.6882 0.841553 24.2869L0.84192 24.2873Z" fill="#101010"/>
<path d="M21.0559 12.7429C22.4438 12.7429 23.8317 12.7418 25.2199 12.7429C26.244 12.7437 26.8401 13.3445 26.8412 14.3741C26.8423 15.3577 26.8426 16.341 26.8412 17.3246C26.8393 18.3182 26.2396 18.9256 25.2431 18.9267C22.4335 18.9307 19.6235 18.9311 16.8135 18.9267C15.8188 18.9252 15.218 18.3149 15.2158 17.322C15.2136 16.3299 15.2136 15.3382 15.2158 14.3461C15.2184 13.3548 15.8258 12.7452 16.8161 12.7433C18.2294 12.7407 19.643 12.7426 21.0562 12.7426L21.0559 12.7429ZM17.795 15.8889C17.7855 16.6222 18.0217 16.8593 18.7519 16.8593C18.828 16.8593 18.9037 16.8615 18.9797 16.8586C19.4126 16.8409 19.6985 16.5538 19.7286 16.1231C19.8102 14.9473 19.3123 14.8431 18.3936 14.9333C18.0669 14.9653 17.8292 15.2315 17.7969 15.5602C17.7862 15.6688 17.795 15.7796 17.795 15.8893V15.8889Z" fill="#101010"/>
<path d="M22.3596 5.24778H10.4205L10.412 5.2187C10.512 5.18631 10.6112 5.14949 10.7126 5.12152C13.8004 4.27704 16.8882 3.4333 19.9763 2.58993C20.9401 2.32672 21.6688 2.73792 21.94 3.7024C22.0818 4.20599 22.2145 4.71216 22.3596 5.24778Z" fill="#101010"/>
<path d="M5.61084 5.20745C5.68066 5.16954 5.74974 5.12941 5.82103 5.09407C8.7574 3.6352 11.6938 2.17632 14.6312 0.718923C15.5547 0.260978 16.3436 0.528972 16.8037 1.45259C16.958 1.76219 17.1105 2.07288 17.274 2.40346C17.17 2.4388 17.0859 2.47193 16.9988 2.49586C13.6994 3.39923 10.4029 4.31365 7.09611 5.19052C6.63054 5.31384 6.1161 5.25273 5.62444 5.2774L5.61084 5.20745Z" fill="#101010"/>
</g>
<defs>
<clipPath id="clip0_913_413">
<rect width="26" height="25" fill="white" transform="translate(0.841919 0.5)"/>
</clipPath>
</defs>
</svg>
