<svg width="31" height="30" viewBox="0 0 31 30" fill="none" xmlns="http://www.w3.org/2000/svg">
<g clip-path="url(#clip0_1087_616)">
<path d="M3.50691 17.0379C3.28269 15.6889 3.28269 14.312 3.50691 12.9629C4.88441 12.9954 6.12191 12.3354 6.60316 11.1742C7.08441 10.0117 6.67566 8.66919 5.67816 7.72044C6.47367 6.60705 7.44761 5.63269 8.56066 4.83669C9.51066 5.83419 10.8532 6.24294 12.0157 5.76169C13.1782 5.28044 13.8369 4.04169 13.8032 2.66544C15.1531 2.44095 16.5308 2.44095 17.8807 2.66544C17.8469 4.04294 18.5069 5.28044 19.6682 5.76169C20.8307 6.24294 22.1732 5.83419 23.1219 4.83669C24.2353 5.63221 25.2097 6.60615 26.0057 7.71919C25.0082 8.66919 24.5994 10.0117 25.0807 11.1742C25.5619 12.3367 26.8007 12.9954 28.1769 12.9617C28.4014 14.3116 28.4014 15.6893 28.1769 17.0392C26.7994 17.0054 25.5619 17.6654 25.0807 18.8267C24.5994 19.9892 25.0082 21.3317 26.0057 22.2804C25.2101 23.3938 24.2362 24.3682 23.1232 25.1642C22.1732 24.1667 20.8307 23.7579 19.6682 24.2392C18.5057 24.7204 17.8469 25.9592 17.8807 27.3354C16.5308 27.5599 15.1531 27.5599 13.8032 27.3354C13.8369 25.9579 13.1769 24.7204 12.0157 24.2392C10.8532 23.7579 9.51066 24.1667 8.56191 25.1642C7.44852 24.3687 6.47416 23.3947 5.67816 22.2817C6.67566 21.3317 7.08441 19.9892 6.60316 18.8267C6.12191 17.6642 4.88316 17.0054 3.50691 17.0392V17.0379ZM15.8419 18.7504C16.8365 18.7504 17.7903 18.3554 18.4936 17.6521C19.1968 16.9488 19.5919 15.995 19.5919 15.0004C19.5919 14.0059 19.1968 13.0521 18.4936 12.3488C17.7903 11.6455 16.8365 11.2504 15.8419 11.2504C14.8473 11.2504 13.8935 11.6455 13.1903 12.3488C12.487 13.0521 12.0919 14.0059 12.0919 15.0004C12.0919 15.995 12.487 16.9488 13.1903 17.6521C13.8935 18.3554 14.8473 18.7504 15.8419 18.7504Z" fill="#F3F3F3"/>
</g>
<defs>
<clipPath id="clip0_1087_616">
<rect width="30" height="30" fill="white" transform="translate(0.841919)"/>
</clipPath>
</defs>
</svg>
