<svg width="20" height="28" viewBox="0 0 20 28" fill="none" xmlns="http://www.w3.org/2000/svg">
<path d="M17.7969 12.725C19.7495 14.6762 19.7495 17.8425 17.7969 19.795L10.7257 26.8662C10.2382 27.3537 9.4457 27.3537 8.9582 26.8662L1.88695 19.795C-0.0655481 17.8425 -0.0655481 14.6763 1.88695 12.7238C3.83945 10.7712 7.0057 10.7712 8.9582 12.7238L9.8407 13.6075L10.7257 12.7238C12.6782 10.7712 15.8444 10.7712 17.7969 12.7238V12.725ZM9.84195 0.25C12.6045 0.25 14.842 2.4875 14.842 5.25C14.842 8.0125 12.6045 10.25 9.84195 10.25C7.07945 10.25 4.84195 8.0125 4.84195 5.25C4.84195 2.4875 7.07945 0.25 9.84195 0.25Z" fill="#101010"/>
</svg>
