<svg width="28" height="26" viewBox="0 0 28 26" fill="none" xmlns="http://www.w3.org/2000/svg">
<path d="M4.50636 14.7735C3.7762 14.7735 3.07413 14.7905 2.37324 14.766C2.04036 14.7545 1.69966 14.6992 1.38122 14.6018C0.909404 14.4582 0.746278 14.0852 0.895355 13.6053C1.01711 13.2137 1.24814 12.8861 1.52912 12.6013C5.30599 8.76673 9.08636 4.93494 12.8675 1.10434C13.6586 0.302851 15.0127 0.296126 15.8061 1.0988C19.5428 4.88154 23.2775 8.66625 27.0067 12.4565C27.3728 12.8288 27.7053 13.2386 27.8224 13.7758C27.8938 14.1046 27.7681 14.3744 27.4731 14.5354C27.1125 14.7316 26.7168 14.7644 26.3207 14.7708C25.6834 14.7811 25.0461 14.7735 24.4088 14.7735H24.1817V25.4971H16.7014C16.7014 25.4188 16.7014 25.3424 16.7014 25.2657C16.7014 23.6109 16.7029 21.9561 16.7002 20.3017C16.6994 19.8483 16.61 19.4151 16.3938 19.0116C16.1097 18.4815 15.6699 18.1615 15.1002 18.0187C14.5675 17.8849 14.0301 17.8826 13.5044 18.042C12.6189 18.3106 12.0367 19.0638 12.0035 20.0133C11.9746 20.8425 11.9832 21.6736 11.9801 22.5036C11.977 23.4265 11.9793 24.3495 11.9793 25.2724C11.9793 25.3436 11.9793 25.4148 11.9793 25.5003H4.50636V14.7735Z" fill="#F3F3F3"/>
</svg>
