<svg width="31" height="30" viewBox="0 0 31 30" fill="none" xmlns="http://www.w3.org/2000/svg">
<g clip-path="url(#clip0_1087_608)">
<path d="M23.7969 13.725C25.7494 15.6762 25.7494 18.8425 23.7969 20.795L16.7257 27.8662C16.2382 28.3537 15.4457 28.3537 14.9582 27.8662L7.88692 20.795C5.93442 18.8425 5.93442 15.6763 7.88692 13.7238C9.83942 11.7712 13.0057 11.7712 14.9582 13.7238L15.8407 14.6075L16.7257 13.7238C18.6782 11.7712 21.8444 11.7712 23.7969 13.7238V13.725ZM15.8419 1.25C18.6044 1.25 20.8419 3.4875 20.8419 6.25C20.8419 9.0125 18.6044 11.25 15.8419 11.25C13.0794 11.25 10.8419 9.0125 10.8419 6.25C10.8419 3.4875 13.0794 1.25 15.8419 1.25Z" fill="#F3F3F3"/>
</g>
<defs>
<clipPath id="clip0_1087_608">
<rect width="30" height="30" fill="white" transform="translate(0.841919)"/>
</clipPath>
</defs>
</svg>
