<svg width="27" height="26" viewBox="0 0 27 26" fill="none" xmlns="http://www.w3.org/2000/svg">
<g clip-path="url(#clip0_1087_609)">
<path d="M0.84192 24.2878V7.49988C1.21452 6.53503 1.59227 6.27734 2.63219 6.27734C9.65508 6.27734 16.6776 6.27734 23.7005 6.27734C24.7544 6.27734 25.335 6.8553 25.3372 7.90887C25.3394 9.08723 25.3379 10.2652 25.3372 11.4436C25.3372 11.5327 25.3291 11.6218 25.3239 11.727C25.2049 11.727 25.113 11.727 25.0212 11.727C22.2715 11.727 19.5214 11.7241 16.7717 11.7285C15.304 11.7307 14.2237 12.7802 14.2009 14.2388C14.184 15.3321 14.1785 16.4261 14.2101 17.5187C14.22 17.8633 14.3119 18.2307 14.4626 18.5406C14.9292 19.5018 15.7406 19.9524 16.7959 19.9542C19.5372 19.9598 22.2788 19.9561 25.0201 19.9561H25.317C25.3265 20.0216 25.3357 20.054 25.3357 20.0868C25.3364 21.3921 25.3508 22.6979 25.3317 24.0029C25.3184 24.9195 24.6985 25.4982 23.7622 25.4985C16.6464 25.5011 9.53051 25.5026 2.41465 25.4904C2.12362 25.4901 1.81312 25.3918 1.54634 25.2659C1.14875 25.0781 0.973838 24.6887 0.841553 24.2874L0.84192 24.2878Z" fill="#F3F3F3"/>
<path d="M21.0559 12.7432C22.4438 12.7432 23.8317 12.7421 25.2199 12.7432C26.244 12.7439 26.8401 13.3447 26.8412 14.3743C26.8423 15.358 26.8426 16.3412 26.8412 17.3249C26.8393 18.3184 26.2396 18.9258 25.2431 18.9269C22.4335 18.931 19.6235 18.9313 16.8135 18.9269C15.8188 18.9255 15.218 18.3151 15.2158 17.3223C15.2136 16.3302 15.2136 15.3385 15.2158 14.3464C15.2184 13.355 15.8258 12.7454 16.8161 12.7436C18.2294 12.741 19.643 12.7428 21.0562 12.7428L21.0559 12.7432ZM17.795 15.8892C17.7855 16.6225 18.0217 16.8595 18.7519 16.8595C18.828 16.8595 18.9037 16.8618 18.9797 16.8588C19.4126 16.8411 19.6985 16.554 19.7286 16.1233C19.8102 14.9475 19.3123 14.8433 18.3936 14.9335C18.0669 14.9656 17.8292 15.2317 17.7969 15.5604C17.7862 15.669 17.795 15.7798 17.795 15.8895V15.8892Z" fill="#F3F3F3"/>
<path d="M22.3596 5.24754H10.4205L10.412 5.21846C10.512 5.18606 10.6112 5.14925 10.7126 5.12127C13.8004 4.2768 16.8882 3.43306 19.9763 2.58969C20.9401 2.32648 21.6688 2.73767 21.94 3.70216C22.0818 4.20575 22.2145 4.71192 22.3596 5.24754Z" fill="#F3F3F3"/>
<path d="M5.61084 5.20745C5.68066 5.16954 5.74974 5.12941 5.82103 5.09407C8.7574 3.6352 11.6938 2.17632 14.6312 0.718923C15.5547 0.260978 16.3436 0.528972 16.8037 1.45259C16.958 1.76219 17.1105 2.07288 17.274 2.40346C17.17 2.4388 17.0859 2.47193 16.9988 2.49586C13.6994 3.39923 10.4029 4.31365 7.09611 5.19052C6.63054 5.31384 6.1161 5.25273 5.62444 5.2774L5.61084 5.20745Z" fill="#F3F3F3"/>
</g>
<defs>
<clipPath id="clip0_1087_609">
<rect width="26" height="25" fill="white" transform="translate(0.841919 0.5)"/>
</clipPath>
</defs>
</svg>
