<svg width="25" height="16" viewBox="0 0 25 16" fill="none" xmlns="http://www.w3.org/2000/svg">
<path d="M1.26555 7.35759C0.875025 7.74811 0.875025 8.38128 1.26555 8.7718L7.62951 15.1358C8.02003 15.5263 8.6532 15.5263 9.04372 15.1358C9.43425 14.7452 9.43425 14.1121 9.04372 13.7216L3.38687 8.0647L9.04372 2.40784C9.43425 2.01732 9.43425 1.38415 9.04372 0.993629C8.6532 0.603105 8.02003 0.603105 7.62951 0.993629L1.26555 7.35759ZM23.9727 9.0647C24.5249 9.0647 24.9727 8.61698 24.9727 8.0647C24.9727 7.51241 24.5249 7.0647 23.9727 7.0647V9.0647ZM1.97266 9.0647H23.9727V7.0647H1.97266V9.0647Z" fill="#101010"/>
</svg>
