<svg width="25" height="16" viewBox="0 0 25 16" fill="none" xmlns="http://www.w3.org/2000/svg">
<path d="M1.26555 7.35735C0.875025 7.74787 0.875025 8.38104 1.26555 8.77156L7.62951 15.1355C8.02003 15.526 8.6532 15.526 9.04372 15.1355C9.43425 14.745 9.43425 14.1118 9.04372 13.7213L3.38687 8.06445L9.04372 2.4076C9.43425 2.01707 9.43425 1.38391 9.04372 0.993385C8.6532 0.602861 8.02003 0.602861 7.62951 0.993385L1.26555 7.35735ZM23.9727 9.06445C24.5249 9.06445 24.9727 8.61674 24.9727 8.06445C24.9727 7.51217 24.5249 7.06445 23.9727 7.06445V9.06445ZM1.97266 9.06445H23.9727V7.06445H1.97266V9.06445Z" fill="#EEEEEE"/>
</svg>
