<svg width="18" height="18" viewBox="0 0 18 18" fill="none" xmlns="http://www.w3.org/2000/svg">
<g id="Frame" clip-path="url(#clip0_941_898)">
<path id="Vector" d="M9.47946 10.1752C9.42364 10.3777 9.32243 10.5458 9.18074 10.6888C8.93906 10.9324 8.69492 11.1735 8.4514 11.4153C8.44404 11.4226 8.43423 11.4288 8.42319 11.4374C7.98644 11.2171 7.60736 10.9244 7.28778 10.5544C6.71364 9.88923 6.40939 9.11609 6.38976 8.23864C6.36645 7.19735 6.71793 6.29289 7.45156 5.55227C8.63972 4.35328 9.83953 3.16596 11.0338 1.97311C11.3025 1.70496 11.5773 1.44479 11.9024 1.24169C13.2537 0.398596 15.032 0.534816 16.2373 1.57795C17.6445 2.79657 17.9303 4.84785 16.909 6.40334C16.6943 6.73039 16.4146 6.99915 16.1404 7.27343C15.1491 8.26318 14.1579 9.25293 13.1672 10.2433C13.0924 10.3181 13.0225 10.3973 12.9501 10.4746L12.9274 10.463C12.9274 10.4378 12.9249 10.4126 12.9274 10.3875C12.9998 9.76958 12.9507 9.16211 12.7716 8.5663C12.7446 8.4761 12.7624 8.42578 12.8293 8.36013C13.4285 7.768 14.0229 7.17096 14.6179 6.57392C14.8958 6.29535 15.1921 6.03211 15.4436 5.73144C15.9803 5.09084 16.1011 4.35513 15.7926 3.58321C15.4902 2.82663 14.9093 2.383 14.0959 2.27868C13.42 2.19217 12.8317 2.40263 12.3483 2.88063C11.5252 3.69489 10.7087 4.5165 9.88983 5.33444C9.4537 5.7701 9.01573 6.20453 8.58022 6.64081C7.52455 7.69866 7.84966 9.46094 9.21447 10.0721C9.2979 10.1095 9.385 10.1384 9.47946 10.1752Z" fill="#101010"/>
<path id="Vector_2" d="M8.93389 7.8172C8.97867 7.64232 9.05841 7.48892 9.17925 7.36374C9.43258 7.10051 9.69389 6.84463 9.94968 6.58385C9.98587 6.54703 10.0122 6.56544 10.0441 6.58262C10.6189 6.88513 11.0857 7.3079 11.439 7.8534C11.8347 8.46516 12.0334 9.1389 12.0273 9.8648C12.0187 10.8644 11.6648 11.732 10.9606 12.4426C9.74603 13.6667 8.51984 14.8792 7.30163 16.0996C6.93174 16.4709 6.53119 16.7992 6.0417 16.9949C4.65602 17.5478 3.36113 17.3802 2.20364 16.4304C1.37616 15.7505 0.947397 14.8467 0.903845 13.7759C0.85784 12.645 1.2725 11.6976 2.0779 10.9092C2.70602 10.2943 3.3231 9.66845 3.94509 9.04748C4.43888 8.55475 4.93267 8.06203 5.42707 7.56991C5.44425 7.55273 5.46265 7.53739 5.49148 7.51162C5.47982 7.67055 5.46694 7.81413 5.45958 7.95771C5.43443 8.46455 5.50436 8.95973 5.64605 9.44509C5.66814 9.52057 5.65157 9.56475 5.59821 9.61813C4.75539 10.4563 3.91442 11.2963 3.07406 12.137C2.30854 12.904 2.25517 14.1429 2.95077 14.9725C3.75371 15.9309 5.17987 15.9959 6.06869 15.1111C6.95444 14.2294 7.83774 13.3446 8.72165 12.461C9.11607 12.0664 9.52337 11.6835 9.90245 11.2749C10.887 10.2146 10.5165 8.49216 9.18845 7.91537C9.10748 7.8804 9.02283 7.85217 8.9345 7.81842L8.93389 7.8172Z" fill="#101010"/>
</g>
<defs>
<clipPath id="clip0_941_898">
<rect width="16.6189" height="16.6189" fill="white" transform="translate(0.900391 0.69043)"/>
</clipPath>
</defs>
</svg>
