<svg width="18" height="18" viewBox="0 0 18 18" fill="none" xmlns="http://www.w3.org/2000/svg">
<path fill-rule="evenodd" clip-rule="evenodd" d="M5.50778 3.42279C5.50778 8.53955 9.65573 12.6875 14.7725 12.6875C15.1483 12.6875 15.5191 12.6651 15.8838 12.6214C14.566 14.7787 12.189 16.2173 9.47837 16.2173C5.33623 16.2173 1.97837 12.8595 1.97837 8.71734C1.97837 6.0069 3.41673 3.63011 5.57379 2.31222C5.53019 2.67664 5.50778 3.04728 5.50778 3.42279ZM7.03599 1.62362C6.90209 2.20171 6.83131 2.80399 6.83131 3.42279C6.83131 7.80858 10.3867 11.364 14.7725 11.364C15.3915 11.364 15.994 11.2931 16.5723 11.1591C16.5738 11.1588 16.5753 11.1584 16.5768 11.1581C16.6265 11.1465 16.6761 11.1345 16.7254 11.122C16.9077 11.0759 17.0875 11.0235 17.2645 10.9651C17.6111 10.8507 17.9701 11.1503 17.8552 11.4967C17.7888 11.697 17.7154 11.8942 17.6353 12.0878C17.6127 12.1424 17.5896 12.1968 17.5659 12.2508C17.5646 12.2538 17.5633 12.2568 17.562 12.2598C16.1974 15.3691 13.0915 17.5409 9.47837 17.5409C4.60527 17.5409 0.654837 13.5904 0.654837 8.71734C0.654837 5.10444 2.82626 1.99871 5.93524 0.634016C5.93824 0.632699 5.94124 0.631383 5.94424 0.630069C5.99828 0.606419 6.05261 0.583295 6.10721 0.560703C6.30087 0.480576 6.498 0.407145 6.69831 0.340699C7.04469 0.2258 7.34439 0.584828 7.22999 0.931372C7.17154 1.1084 7.11916 1.28819 7.07307 1.47049C7.0606 1.51984 7.04859 1.56937 7.03704 1.61908C7.03669 1.62059 7.03634 1.62211 7.03599 1.62362Z" fill="white"/>
</svg>
