<svg width="12" height="17" viewBox="0 0 12 17" fill="none" xmlns="http://www.w3.org/2000/svg">
<g clip-path="url(#clip0_895_436)">
<path d="M2.45686 0C3.58329 0.185989 4.11345 1.02744 4.4997 1.99188C4.99609 3.23231 5.14736 4.52973 5.03721 5.86465C4.97993 6.56061 4.88447 7.24757 4.66125 7.91203C4.5981 8.10102 4.48795 8.20002 4.29997 8.24501C3.44671 8.4505 2.59638 8.66349 1.74606 8.87948C1.64766 8.90497 1.58451 8.88848 1.51549 8.81948C1.23351 8.539 1.05728 8.19102 0.904545 7.82954C0.51977 6.91609 0.284793 5.95915 0.10856 4.98271C-0.0897025 3.87877 -0.00305457 2.78984 0.251015 1.7114C0.364098 1.23293 0.577046 0.799453 0.945666 0.460473C1.20267 0.221987 1.50667 0.0929945 1.84445 0.0329981C1.88704 0.0254985 1.92817 0.0104994 1.96929 0H2.45686Z" fill="#007CFF"/>
<path d="M9.88664 3.96728C10.9205 4.00928 11.5006 4.66774 11.7474 5.67418C11.8766 6.20065 11.9309 6.75111 11.9794 7.29408C12.091 8.54801 11.7665 9.73894 11.4155 10.9194C11.2378 11.5178 11.0145 12.0983 10.6415 12.6053C10.618 12.6368 10.5945 12.6653 10.5695 12.6953C10.4667 12.8273 10.3522 12.8678 10.1774 12.8213C9.34472 12.6008 8.50909 12.3983 7.67198 12.1928C7.51043 12.1538 7.40469 12.0668 7.35476 11.9003C6.7541 9.90093 6.76291 7.91505 7.50015 5.95166C7.74394 5.3037 8.09347 4.72323 8.66182 4.30776C9.03044 4.03927 9.43871 3.93278 9.88664 3.96578V3.96728Z" fill="#007CFF"/>
<path d="M1.81665 9.68179C2.79768 9.3818 3.73465 9.09682 4.68044 8.80884C5.14745 9.5333 5.50433 10.2998 5.51167 11.1922C5.51461 11.6572 5.40593 12.0936 5.11955 12.4656C4.58645 13.1601 3.69206 13.2351 3.02091 12.6546C2.52011 12.2211 2.24548 11.6482 2.07953 11.0227C1.96351 10.5877 1.9033 10.1378 1.81665 9.68329V9.68179Z" fill="#007CFF"/>
<path d="M10.1569 13.6371C10.0688 14.5551 9.9043 15.44 9.35798 16.2005C9.03782 16.6459 8.62808 16.9609 8.06854 16.9984C7.42823 17.0404 6.84372 16.6024 6.61902 15.9365C6.38405 15.239 6.47951 14.5566 6.74092 13.8966C6.88484 13.5351 7.08604 13.1976 7.27109 12.8542C7.29165 12.8152 7.37829 12.7792 7.41942 12.7912C8.32555 13.0671 9.23021 13.3491 10.1554 13.6371H10.1569Z" fill="#007CFF"/>
</g>
<defs>
<clipPath id="clip0_895_436">
<rect width="12" height="17" fill="white"/>
</clipPath>
</defs>
</svg>
