<svg width="22" height="22" viewBox="0 0 22 22" fill="none" xmlns="http://www.w3.org/2000/svg">
<path fill-rule="evenodd" clip-rule="evenodd" d="M11.3308 15.8298C13.9887 15.8298 16.1433 13.6752 16.1433 11.0173C16.1433 8.35946 13.9887 6.20483 11.3308 6.20483C8.67294 6.20483 6.51831 8.35946 6.51831 11.0173C6.51831 13.6752 8.67294 15.8298 11.3308 15.8298ZM11.3308 17.1423C14.7136 17.1423 17.4558 14.4001 17.4558 11.0173C17.4558 7.63459 14.7136 4.89233 11.3308 4.89233C7.94807 4.89233 5.20581 7.63459 5.20581 11.0173C5.20581 14.4001 7.94807 17.1423 11.3308 17.1423Z" fill="white"/>
<path fill-rule="evenodd" clip-rule="evenodd" d="M21.8308 11.0173C21.8308 11.3798 21.537 11.6736 21.1746 11.6736L18.9871 11.6736C18.6246 11.6736 18.3308 11.3798 18.3308 11.0173C18.3308 10.6549 18.6246 10.3611 18.9871 10.3611L21.1746 10.3611C21.537 10.3611 21.8308 10.6549 21.8308 11.0173ZM4.33081 11.0173C4.33081 11.3798 4.037 11.6736 3.67456 11.6736H1.48706C1.12462 11.6736 0.830811 11.3798 0.830811 11.0173C0.830811 10.6549 1.12462 10.3611 1.48706 10.3611H3.67456C4.037 10.3611 4.33081 10.6549 4.33081 11.0173Z" fill="white"/>
<path fill-rule="evenodd" clip-rule="evenodd" d="M18.7553 3.59282C19.0116 3.8491 19.0116 4.26461 18.7553 4.52089L17.2085 6.06769C16.9523 6.32397 16.5367 6.32397 16.2805 6.06769C16.0242 5.81141 16.0242 5.39589 16.2805 5.13961L17.8273 3.59282C18.0835 3.33653 18.499 3.33653 18.7553 3.59282ZM6.38096 15.9672C6.63724 16.2235 6.63724 16.639 6.38096 16.8953L4.83417 18.4421C4.57788 18.6983 4.16237 18.6983 3.90609 18.4421C3.64981 18.1858 3.64981 17.7703 3.90609 17.514L5.45288 15.9672C5.70916 15.7109 6.12468 15.7109 6.38096 15.9672Z" fill="white"/>
<path fill-rule="evenodd" clip-rule="evenodd" d="M11.3308 0.517334C11.6932 0.517334 11.9871 0.811147 11.9871 1.17358L11.9871 3.36108C11.9871 3.72352 11.6932 4.01733 11.3308 4.01733C10.9684 4.01733 10.6746 3.72352 10.6746 3.36108L10.6746 1.17358C10.6746 0.811147 10.9684 0.517334 11.3308 0.517334ZM11.3308 18.0173C11.6932 18.0173 11.9871 18.3111 11.9871 18.6736V20.8611C11.9871 21.2235 11.6932 21.5173 11.3308 21.5173C10.9684 21.5173 10.6746 21.2235 10.6746 20.8611V18.6736C10.6746 18.3111 10.9684 18.0173 11.3308 18.0173Z" fill="white"/>
<path fill-rule="evenodd" clip-rule="evenodd" d="M3.90629 3.59282C4.16257 3.33653 4.57809 3.33653 4.83437 3.59281L6.38117 5.13961C6.63745 5.39589 6.63745 5.81141 6.38117 6.06769C6.12488 6.32397 5.70937 6.32397 5.45309 6.06769L3.90629 4.52089C3.65001 4.26461 3.65001 3.8491 3.90629 3.59282ZM16.2807 15.9672C16.5369 15.7109 16.9525 15.7109 17.2087 15.9672L18.7555 17.514C19.0118 17.7703 19.0118 18.1858 18.7555 18.4421C18.4993 18.6983 18.0837 18.6983 17.8275 18.4421L16.2807 16.8953C16.0244 16.639 16.0244 16.2235 16.2807 15.9672Z" fill="white"/>
</svg>
